<svg width="128" height="18" viewBox="0 0 128 18" fill="none" xmlns="http://www.w3.org/2000/svg">
<path d="M13.112 17.5H0.68V0.699999H3.584V14.764H13.112V17.5ZM15.7406 15.196C14.0926 13.532 13.2686 11.5 13.2686 9.1C13.2686 6.7 14.1006 4.668 15.7646 3.004C17.4446 1.34 19.4766 0.508 21.8606 0.508C24.3246 0.508 26.3726 1.332 28.0046 2.98C29.6366 4.628 30.4526 6.668 30.4526 9.1C30.4526 11.532 29.6206 13.572 27.9566 15.22C26.3086 16.868 24.2766 17.692 21.8606 17.692C19.4286 17.692 17.3886 16.86 15.7406 15.196ZM17.8526 4.996C16.8126 6.132 16.2926 7.5 16.2926 9.1C16.2926 10.7 16.8286 12.068 17.9006 13.204C18.9726 14.34 20.2926 14.908 21.8606 14.908C23.5086 14.908 24.8446 14.356 25.8686 13.252C26.9086 12.132 27.4286 10.748 27.4286 9.1C27.4286 7.484 26.8926 6.116 25.8206 4.996C24.7646 3.86 23.4446 3.292 21.8606 3.292C20.2446 3.292 18.9086 3.86 17.8526 4.996ZM44.834 11.164H40.37V8.524H47.618V15.028C46.834 15.876 45.842 16.532 44.642 16.996C43.442 17.46 42.226 17.692 40.994 17.692C38.402 17.692 36.258 16.9 34.562 15.316C32.882 13.716 32.042 11.644 32.042 9.1C32.042 6.636 32.866 4.588 34.514 2.956C36.178 1.324 38.234 0.508 40.682 0.508C41.962 0.508 43.21 0.732 44.426 1.18C45.658 1.628 46.594 2.308 47.234 3.22L45.29 5.068C44.218 3.884 42.73 3.292 40.826 3.292C39.082 3.292 37.682 3.82 36.626 4.876C35.586 5.932 35.066 7.34 35.066 9.1C35.066 10.876 35.626 12.292 36.746 13.348C37.866 14.388 39.298 14.908 41.042 14.908C42.594 14.908 43.858 14.516 44.834 13.732V11.164ZM51.6703 15.196C50.0223 13.532 49.1982 11.5 49.1982 9.1C49.1982 6.7 50.0303 4.668 51.6943 3.004C53.3743 1.34 55.4063 0.508 57.7903 0.508C60.2543 0.508 62.3023 1.332 63.9343 2.98C65.5663 4.628 66.3823 6.668 66.3823 9.1C66.3823 11.532 65.5503 13.572 63.8863 15.22C62.2383 16.868 60.2063 17.692 57.7903 17.692C55.3583 17.692 53.3183 16.86 51.6703 15.196ZM53.7823 4.996C52.7423 6.132 52.2223 7.5 52.2223 9.1C52.2223 10.7 52.7583 12.068 53.8303 13.204C54.9023 14.34 56.2223 14.908 57.7903 14.908C59.4383 14.908 60.7743 14.356 61.7983 13.252C62.8383 12.132 63.3583 10.748 63.3583 9.1C63.3583 7.484 62.8223 6.116 61.7503 4.996C60.6943 3.86 59.3743 3.292 57.7903 3.292C56.1743 3.292 54.8383 3.86 53.7823 4.996ZM71.9531 3.436H66.3131V0.699999H80.4971V3.436H74.8571V17.5H71.9531V3.436ZM93.3076 0.699999H96.7876L89.9956 10.228V17.5H87.0916V10.228L80.3476 0.699999H83.9476L88.5796 7.396L93.3076 0.699999ZM101.201 11.74V17.5H98.2972V0.699999H105.089C106.081 0.699999 106.977 0.795999 107.777 0.987999C108.577 1.164 109.305 1.46 109.961 1.876C110.633 2.276 111.153 2.844 111.521 3.58C111.889 4.316 112.073 5.196 112.073 6.22C112.073 7.196 111.873 8.052 111.473 8.788C111.089 9.524 110.553 10.1 109.865 10.516C109.193 10.932 108.457 11.244 107.657 11.452C106.857 11.644 105.993 11.74 105.065 11.74H101.201ZM105.185 3.412H101.201V9.028H105.017C107.705 9.028 109.049 8.084 109.049 6.196C109.049 4.34 107.761 3.412 105.185 3.412ZM127.283 17.5H114.563V0.699999H127.043V3.436H117.467V7.66H126.419V10.3H117.467V14.764H127.283V17.5Z" fill="white"/>
</svg>
